<?xml version="1.0" encoding="iso-8859-1"?>
<!-- Generator: Adobe Illustrator 19.0.0, SVG Export Plug-In . SVG Version: 6.00 Build 0)  -->
<svg version="1.1" id="Layer_1" xmlns="http://www.w3.org/2000/svg" xmlns:xlink="http://www.w3.org/1999/xlink" x="0px" y="0px"
	 viewBox="0 0 481.882 481.882" style="enable-background:new 0 0 481.882 481.882;" xml:space="preserve">
<polygon style="fill:#F6C358;" points="240.941,239.134 152.395,196.367 152.395,196.367 152.395,315.633 240.941,358.4
	240.941,358.4 "/>
<polygon style="fill:#DC8744;" points="240.941,239.134 240.941,358.4 329.487,315.633 329.487,196.367 "/>
<polygon style="fill:#FCD462;" points="240.941,239.134 329.487,196.367 329.487,196.367 240.941,153.6 152.395,196.367 "/>
<polygon style="fill:#F6C358;" points="240.941,85.534 152.395,42.767 152.395,42.767 152.395,162.033 240.941,204.8 240.941,204.8
	"/>
<polygon style="fill:#DC8744;" points="240.941,85.534 240.941,204.8 329.487,162.033 329.487,42.767 "/>
<polygon style="fill:#FCD462;" points="240.941,85.534 329.487,42.767 329.487,42.767 240.941,0 152.395,42.767 "/>
<polygon style="fill:#F6C358;" points="378.88,307.2 289.732,264.433 289.732,264.433 289.732,383.699 378.88,426.466
	378.88,426.466 "/>
<polygon style="fill:#DC8744;" points="378.88,307.2 378.88,426.466 467.426,383.699 467.426,264.433 "/>
<polygon style="fill:#FCD462;" points="378.88,307.2 467.426,264.433 467.426,264.433 378.88,221.666 289.732,264.433 "/>
<polygon style="fill:#F6C358;" points="378.88,153.6 289.732,110.833 289.732,110.833 289.732,230.099 378.88,272.866
	378.88,272.866 "/>
<polygon style="fill:#DC8744;" points="378.88,153.6 378.88,272.866 467.426,230.099 467.426,110.833 "/>
<polygon style="fill:#FCD462;" points="378.88,153.6 467.426,110.833 467.426,110.833 378.88,68.066 289.732,110.833 "/>
<polygon style="fill:#F6C358;" points="103.002,307.2 14.456,264.433 14.456,264.433 14.456,383.699 103.002,426.466
	103.002,426.466 "/>
<polygon style="fill:#DC8744;" points="103.002,307.2 103.002,426.466 192.151,383.699 192.151,264.433 "/>
<polygon style="fill:#FCD462;" points="103.002,307.2 192.151,264.433 192.151,264.433 103.002,221.666 14.456,264.433 "/>
<polygon style="fill:#F6C358;" points="103.002,153.6 14.456,110.833 14.456,110.833 14.456,230.099 103.002,272.866
	103.002,272.866 "/>
<polygon style="fill:#DC8744;" points="103.002,153.6 103.002,272.866 192.151,230.099 192.151,110.833 "/>
<polygon style="fill:#FCD462;" points="103.002,153.6 192.151,110.833 192.151,110.833 103.002,68.066 14.456,110.833 "/>
<polygon style="fill:#F6C358;" points="240.941,362.616 152.395,319.849 152.395,319.849 152.395,439.115 240.941,481.882
	240.941,481.882 "/>
<polygon style="fill:#DC8744;" points="240.941,362.616 240.941,481.882 329.487,439.115 329.487,319.849 "/>
<polygon style="fill:#FCD462;" points="240.941,362.616 329.487,319.849 329.487,319.849 240.941,277.082 152.395,319.849 "/>
<polygon style="fill:#F6C358;" points="240.941,209.016 152.395,166.249 152.395,166.249 152.395,285.515 240.941,328.282
	240.941,328.282 "/>
<polygon style="fill:#DC8744;" points="240.941,209.016 240.941,328.282 329.487,285.515 329.487,166.249 "/>
<polygon style="fill:#FCD462;" points="240.941,209.016 329.487,166.249 329.487,166.249 240.941,123.482 152.395,166.249 "/>
</svg>
