<?xml version="1.0" encoding="iso-8859-1"?>
<!-- Generator: Adobe Illustrator 19.0.0, SVG Export Plug-In . SVG Version: 6.00 Build 0)  -->
<svg version="1.1" id="Layer_1" xmlns="http://www.w3.org/2000/svg" xmlns:xlink="http://www.w3.org/1999/xlink" x="0px" y="0px"
	 viewBox="0 0 512 512" style="enable-background:new 0 0 512 512;" xml:space="preserve">
<rect x="68.683" y="87.415" style="fill:#DFDFE1;" width="374.634" height="424.585"/>
<rect x="256" y="87.415" style="fill:#CFCDD2;" width="187.317" height="424.585"/>
<path style="fill:#A58868;" d="M305.951,49.951C305.951,22.363,283.588,0,256,0s-49.951,22.363-49.951,49.951H143.61v74.927H368.39
	V49.951H305.951z"/>
<path style="fill:#947859;" d="M368.39,49.951h-62.439C305.951,22.363,283.588,0,256,0v124.878h112.39V49.951z"/>
<path style="fill:#6DC180;" d="M293.465,299.707h-18.733v-37.463h18.733c10.722,0,21.226,1.792,31.221,5.325l12.488-35.321
	c-14.018-4.955-28.722-7.468-43.709-7.468h-18.733v-31.22h-37.463v31.22h-18.73c-30.986,0-56.195,25.209-56.195,56.195
	s25.209,56.195,56.195,56.195h18.73v37.463h-18.73c-10.722,0-21.227-1.792-31.222-5.325l-12.487,35.321
	c14.016,4.955,28.722,7.468,43.709,7.468h18.73v31.22h37.463v-31.22h18.733c30.987,0,56.195-25.209,56.195-56.195
	S324.452,299.707,293.465,299.707z M218.538,299.707c-10.329,0-18.732-8.403-18.732-18.732c0-10.329,8.403-18.732,18.732-18.732
	h18.73v37.463H218.538z M293.465,374.634h-18.733v-37.463h18.733c10.329,0,18.732,8.403,18.732,18.732
	C312.196,366.231,303.795,374.634,293.465,374.634z"/>
<path style="fill:#5CA15D;" d="M293.465,299.707h-18.733v-37.463h18.733c10.722,0,21.226,1.792,31.221,5.325l12.488-35.321
	c-14.018-4.955-28.722-7.468-43.709-7.468h-18.733v-31.22H256v249.756h18.732v-31.22h18.733c30.987,0,56.195-25.209,56.195-56.195
	S324.452,299.707,293.465,299.707z M293.465,374.634h-18.733v-37.463h18.733c10.329,0,18.732,8.403,18.732,18.732
	C312.196,366.231,303.795,374.634,293.465,374.634z"/>
<g>
</g>
<g>
</g>
<g>
</g>
<g>
</g>
<g>
</g>
<g>
</g>
<g>
</g>
<g>
</g>
<g>
</g>
<g>
</g>
<g>
</g>
<g>
</g>
<g>
</g>
<g>
</g>
<g>
</g>
</svg>
