<svg id="Isolation_Mode" xmlns="http://www.w3.org/2000/svg" viewBox="0 0 435.6 537.1">
  <style>
    .st0{fill:#e5a980}.st1{fill:#3b3b3b}.st2{fill:#ff5959}.st3{fill:#b33737}.st4{fill:#f4bc7d}.st5{fill:#f4c495}.st6{fill:#fff}.st7{fill:#C2C2C6}.st8{fill:#D2D2D6}.st9{fill:#e3d7bf}.st10{fill:#faeed6}.st11{fill:#afafaf}.st12{fill:#e8e8e8}.st13{fill:#8e8e8e}
  </style>
  <path class="st0" d="M219 238.7c-35.2 0-51-19.8-51-19.8v-15.1h99.6v15.8c0-.1-13.5 19.1-48.6 19.1z"/>
  <path class="st0" d="M178.3 226l39.5 42.3 39.4-42.3z"/>
  <path class="st1"
        d="M359.3 250.2l-38.3-5.6-37.7-20.8-65.5 84-66.1-84-35.1 20.8-39.2 5.7c-32.1 4.7-58 31.1-64.9 66L2 392.2c-4.5 20.7-1.5 42.2 8.6 61.3l55.9 83.6h302.6l56.2-85.6c9.8-18.9 12.7-40.3 8.3-60.8l-9.2-73c-6.4-35.6-32.6-62.7-65.1-67.5z"/>
  <path class="st2"
        d="M337.9 185.1L315.8 102c-5.7-25.4-15.8-60.4-42.2-78.1L257 16.1C241.9 6.1 229.6.7 217.8 0h-1.4v.1c-11.7.6-24.1 6.1-39.1 16.1L160.6 24c-26.3 17.6-36.3 52.7-42 78.1l-21 83.1s14.2-11.6 114.2-11.6h10.8c100.2-.1 115.3 11.5 115.3 11.5z"/>
  <path class="st3"
        d="M336.7 178.7c-12.8-44-48.5-100.1-118.7-100.1S113.7 135.1 99.3 178.7c-15.5 46.9 47.8 86.8 61.4 104.8 12.5 16.5 50.5 56.8 56.7 67.2h1.1c7-10.4 44.4-50.7 56.8-67.2 13.6-18 74.6-59.5 61.4-104.8z"/>
  <path class="st4"
        d="M273.9 164.9c-6 2.4-12 4.3-19.1 4.7-14.2.7-30.5-9.4-36.9-9.4s-22.9 10.1-37.1 9.4c-7.1-.4-13.1-2.3-19.1-4.7-7.3-2.9-15.6 3-13.7 10l10.8 56.7c1.9 7.3 6.6 13.7 13.3 18.1l25.3 13.9c6 4 11.6 6.2 20.6 6.2s14.5-2.2 20.5-6.2l25.2-13.9c6.7-4.4 11.3-10.9 13.3-18.1l10.8-56.7c1.7-7-6.5-12.9-13.9-10z"/>
  <path class="st5"
        d="M273.9 164.9c-6 2.4-12 4.3-19.1 4.7-14.2.7-30.5-9.4-36.9-9.4h-.1v109.6h.1c8.9 0 14.5-2.2 20.5-6.2l25.2-13.9c6.7-4.4 11.3-10.9 13.3-18.1l10.8-56.7c1.8-7-6.4-12.9-13.8-10z"/>
  <path class="st6" d="M195.5 226.6c13.4 6.9 31.2 6.9 44.6 0-10.4 11.6-34.3 11.7-44.6 0z"/>
  <g>
    <path class="st7"
          d="M352.6 520.5H83l-8.8-176.1c-.5-10.6 7.9-19.5 18.6-19.5h250c10.6 0 19.1 8.9 18.6 19.5l-8.8 176.1z"/>
    <path class="st8" d="M342.8 324.8h-125v195.7h134.8l8.8-176.1c.5-10.7-8-19.6-18.6-19.6z"/>
    <path class="st7" d="M81.5 524.3h272.6V537H81.5z"/>
  </g>
</svg>
